<svg width="24" height="23" viewBox="0 0 24 23" fill="none" xmlns="http://www.w3.org/2000/svg">
<path fill-rule="evenodd" clip-rule="evenodd" d="M11.075 15.0507H12.9242C13.5642 15.3846 14.0012 16.0545 14.0012 16.8264V21.1807C14.0012 21.654 14.385 22.0379 14.8584 22.0379H17.4226C18.9934 22.0379 20.3292 20.892 20.5683 19.3396C20.7871 17.9191 20.8781 16.4838 20.8413 15.0507H22.7143C23.2171 15.0507 23.6738 14.7576 23.8831 14.3006C24.0926 13.8435 24.0165 13.3063 23.6882 12.9255L14.2722 2.00308C13.0755 0.614836 10.9245 0.614841 9.72778 2.00308L0.311921 12.9255C-0.0163571 13.3063 -0.0925526 13.8435 0.116885 14.3006C0.326323 14.7576 0.782964 15.0507 1.28573 15.0507H3.15862C3.12182 16.4838 3.21285 17.9191 3.43159 19.3396C3.67064 20.892 5.00647 22.0379 6.57716 22.0379H9.14084C9.61423 22.0379 9.99799 21.654 9.99799 21.1807V16.8264C9.99799 16.0545 10.435 15.3846 11.075 15.0507Z" fill="#242134"/>
</svg>
