<svg width="24" height="23" viewBox="0 0 24 23" fill="none" xmlns="http://www.w3.org/2000/svg">
<path fill-rule="evenodd" clip-rule="evenodd" d="M2.61182 0.386255C5.59022 0.276763 8.75148 0.216721 12.0002 0.216721C15.2438 0.216721 18.3423 0.280561 21.356 0.38662C22.12 0.41351 22.9636 0.789619 23.3725 1.61609C23.6766 2.23066 23.8648 2.90036 23.8648 3.60566C23.8648 4.28979 23.6727 4.92476 23.4022 5.49646C22.9827 6.38292 22.0746 6.79476 21.2384 6.79325C19.3112 6.78975 17.4018 6.77974 15.5071 6.7698H15.507H15.5069H15.5068H15.5068H15.5067H15.5066H15.5066H15.5065C11.1911 6.74715 6.95112 6.72492 2.74634 6.78101C1.94044 6.79178 1.02272 6.41928 0.596787 5.53272C0.308167 4.932 0.135498 4.28736 0.135498 3.60566C0.135498 2.89839 0.311573 2.21366 0.635479 1.57447C1.04564 0.765079 1.87694 0.413272 2.61182 0.386255ZM2.0959 9.42115C2.1472 9.12142 2.43065 8.93631 2.73472 8.93631H20.6123C20.9302 8.93631 21.2271 9.12912 21.2797 9.44259C21.5656 11.1512 21.733 12.9494 21.733 14.7894C21.733 16.6914 21.535 18.5219 21.243 20.2749C21.0565 21.3938 20.1443 22.2359 19.0297 22.3572C16.6767 22.6134 14.2325 22.7831 11.6909 22.7831C9.61212 22.7831 7.57771 22.5996 5.65641 22.4265C5.23999 22.389 4.82889 22.3519 4.4238 22.3173C3.29784 22.2211 2.3178 21.3995 2.11867 20.2339C1.81946 18.4823 1.64889 16.6691 1.64889 14.7894C1.64889 12.9488 1.80184 11.1392 2.0959 9.42115ZM9.21878 12.2531C8.62706 12.2531 8.14735 12.7328 8.14735 13.3246C8.14735 13.9163 8.62706 14.396 9.21878 14.396H14.1638C14.7556 14.396 15.2353 13.9163 15.2353 13.3246C15.2353 12.7328 14.7556 12.2531 14.1638 12.2531H9.21878Z" fill="#242134"/>
</svg>
