<svg width="22" height="22" viewBox="0 0 22 22" fill="none" xmlns="http://www.w3.org/2000/svg">
<path fill-rule="evenodd" clip-rule="evenodd" d="M4.125 18.5625C3.94266 18.5625 3.7678 18.4901 3.63886 18.3611C3.50993 18.2322 3.4375 18.0573 3.4375 17.875V4.125C3.4375 3.94266 3.50993 3.7678 3.63886 3.63886C3.7678 3.50993 3.94266 3.4375 4.125 3.4375H16.8438C17.1173 3.4375 17.3796 3.32885 17.573 3.13545C17.7663 2.94206 17.875 2.67975 17.875 2.40625C17.875 2.13275 17.7663 1.87044 17.573 1.67705C17.3796 1.48365 17.1173 1.375 16.8438 1.375H4.125C3.39565 1.375 2.69618 1.66473 2.18046 2.18046C1.66473 2.69618 1.375 3.39565 1.375 4.125V17.875C1.375 18.6043 1.66473 19.3038 2.18046 19.8195C2.69618 20.3353 3.39565 20.625 4.125 20.625H17.875C18.6043 20.625 19.3038 20.3353 19.8195 19.8195C20.3353 19.3038 20.625 18.6043 20.625 17.875V13.4062C20.625 13.1327 20.5163 12.8704 20.323 12.677C20.1296 12.4837 19.8673 12.375 19.5938 12.375C19.3202 12.375 19.0579 12.4837 18.8645 12.677C18.6712 12.8704 18.5625 13.1327 18.5625 13.4062V17.875C18.5625 18.0573 18.4901 18.2322 18.3611 18.3611C18.2322 18.4901 18.0573 18.5625 17.875 18.5625H4.125ZM21.6975 6.435C21.8797 6.23951 21.9788 5.98095 21.9741 5.71378C21.9694 5.44662 21.8612 5.19171 21.6722 5.00277C21.4833 4.81383 21.2284 4.7056 20.9612 4.70088C20.6941 4.69617 20.4355 4.79534 20.24 4.9775L12.5977 12.6184L10.0224 9.95638C9.92841 9.85819 9.81597 9.77955 9.69151 9.72497C9.56706 9.67039 9.43304 9.64095 9.29717 9.63833C9.16129 9.63572 9.02624 9.65999 8.89978 9.70974C8.77331 9.7595 8.65793 9.83376 8.56026 9.92826C8.4626 10.0228 8.38457 10.1356 8.33067 10.2604C8.27677 10.3851 8.24806 10.5193 8.24618 10.6552C8.24431 10.7911 8.26932 10.926 8.31976 11.0522C8.37021 11.1784 8.4451 11.2934 8.54012 11.3905L11.8443 14.806C11.9393 14.9046 12.0531 14.9833 12.1789 15.0374C12.3047 15.0916 12.44 15.1201 12.577 15.1214C12.714 15.1227 12.8498 15.0967 12.9766 15.0449C13.1034 14.9931 13.2186 14.9166 13.3155 14.8197L21.6975 6.435Z" fill="#BCE3BF"/>
</svg>
