<svg width="24" height="23" viewBox="0 0 24 23" fill="none" xmlns="http://www.w3.org/2000/svg">
<path fill-rule="evenodd" clip-rule="evenodd" d="M7.96855 2.91576C5.63032 0.294407 2.73292 0.0811398 1.36459 0.53725C1.15624 0.6067 1.03411 0.822409 1.08175 1.0368L2.48964 7.37228H1.50007C0.78999 7.37228 0.214355 7.94792 0.214355 8.658C0.214355 9.36809 0.78999 9.94371 1.50007 9.94371H2.29934L1.08193 15.4221C1.03428 15.6364 1.15642 15.8521 1.36476 15.9216C2.63626 16.3454 5.2248 16.1907 7.45917 14.0693C7.49873 14.0317 7.52961 13.9883 7.55164 13.9416C9.28358 15.3238 11.5209 16.4884 14.31 16.7982C17.5038 17.1532 19.8899 16.2672 21.4746 14.6823C23.0495 13.1073 23.7858 10.8894 23.7858 8.65784C23.786 6.42627 23.0497 4.20843 21.4746 2.63343C19.8899 1.0486 17.5038 0.162729 14.31 0.517595C11.7717 0.799628 9.69033 1.78957 8.03105 3.00723C8.01461 2.97481 7.99378 2.94404 7.96855 2.91576ZM10.0256 17.8885C9.45033 17.6497 8.78465 18.0323 8.83162 18.6534C8.87169 19.1833 8.95637 19.7025 9.08482 20.2556C9.22493 20.8586 9.59261 21.3825 10.1047 21.722C10.6473 22.0818 11.2618 22.4281 12.0225 22.5763C12.7934 22.7265 13.6359 22.6591 14.6282 22.3285C15.8739 21.9131 16.5121 20.8902 16.8107 19.8853C16.9496 19.4178 16.5393 18.999 16.0518 19.013C15.4158 19.0315 14.7557 19.004 14.0733 18.9282C12.5873 18.7631 11.2401 18.3926 10.0256 17.8885Z" fill="#242134"/>
</svg>
