<svg width="24" height="24" viewBox="0 0 24 24" fill="none" xmlns="http://www.w3.org/2000/svg">
<path d="M13.2325 0V2.4C18.5375 3.048 22.2958 7.836 21.6433 13.104C21.3765 15.2268 20.4046 17.2006 18.8813 18.7133C17.3579 20.226 15.3702 21.1911 13.2325 21.456V23.856C19.8789 23.136 24.6523 17.208 23.9272 10.62C23.2988 5.028 18.8638 0.6 13.2325 0ZM10.8156 0C8.44703 0.216 6.21141 1.14 4.37457 2.64L6.10265 4.488C7.45611 3.408 9.08751 2.712 10.8156 2.472V0.0719999M2.67066 4.404C1.15489 6.22194 0.224408 8.45035 0 10.8H2.41689C2.6465 9.096 3.32322 7.476 4.39874 6.12L2.67066 4.404ZM0.0120844 13.2C0.253773 15.552 1.18428 17.772 2.68275 19.596L4.39874 17.88C3.3316 16.5235 2.65127 14.9071 2.42897 13.2H0.0120844ZM6.05431 19.644L4.37457 21.288C6.2051 22.8032 8.44615 23.7468 10.8156 24V21.6C9.09645 21.3793 7.46868 20.7037 6.10265 19.644H6.05431ZM7.89115 17.76L9.00292 13.092L5.37758 9.996L10.1509 9.552L12.024 5.22L13.8971 9.6L18.6705 9.996L15.0451 13.092L16.1569 17.76L12.024 15.288L7.89115 17.76Z" fill="#BCE3BF"/>
</svg>
