<svg width="17" height="22" viewBox="0 0 17 22" fill="none" xmlns="http://www.w3.org/2000/svg">
<path d="M9.5625 7.7H15.4062L9.5625 1.65V7.7ZM2.125 0H10.625L17 6.6V19.8C17 20.3835 16.7761 20.9431 16.3776 21.3556C15.9791 21.7682 15.4386 22 14.875 22H2.125C1.56141 22 1.02091 21.7682 0.622398 21.3556C0.223883 20.9431 0 20.3835 0 19.8V2.2C0 0.979 0.945625 0 2.125 0ZM3.1875 19.8H5.3125V13.2H3.1875V19.8ZM7.4375 19.8H9.5625V11H7.4375V19.8ZM11.6875 19.8H13.8125V15.4H11.6875V19.8Z" fill="#BCE3BF"/>
</svg>
