<svg width="24" height="23" viewBox="0 0 24 23" fill="none" xmlns="http://www.w3.org/2000/svg">
<path fill-rule="evenodd" clip-rule="evenodd" d="M9.97358 1.02393C10.9786 -0.343365 13.0215 -0.343365 14.0265 1.02393C14.933 2.2572 16.4552 2.88583 17.9704 2.65435C19.6514 2.39751 21.1024 3.84859 20.8456 5.52965C20.6142 7.04477 21.2428 8.56699 22.4761 9.4735C23.8434 10.4785 23.8434 12.5214 22.4761 13.5264C21.2428 14.4329 20.6142 15.9551 20.8456 17.4703C21.1024 19.1514 19.6514 20.6023 17.9704 20.3455C16.4552 20.1141 14.933 20.7427 14.0265 21.976C13.0215 23.3433 10.9786 23.3433 9.97358 21.976C9.06706 20.7427 7.54485 20.1141 6.02973 20.3455C4.34866 20.6023 2.89759 19.1514 3.15442 17.4703C3.3859 15.9551 2.75728 14.4329 1.52401 13.5264C0.156711 12.5214 0.156711 10.4785 1.52401 9.4735C2.75728 8.56699 3.3859 7.04477 3.15442 5.52965C2.89759 3.84859 4.34866 2.39751 6.02973 2.65435C7.54485 2.88583 9.06706 2.2572 9.97358 1.02393ZM6.78773 11.4997C6.78773 8.62094 9.12144 6.28724 12.0002 6.28724C14.879 6.28724 17.2127 8.62094 17.2127 11.4997C17.2127 14.3785 14.879 16.7121 12.0002 16.7121C9.12144 16.7121 6.78773 14.3785 6.78773 11.4997Z" fill="#242134"/>
</svg>
