<svg width="18" height="14" viewBox="0 0 18 14" fill="none" xmlns="http://www.w3.org/2000/svg">
<path d="M17 6.25001C17.1989 6.25001 17.3897 6.32903 17.5303 6.46968C17.671 6.61033 17.75 6.8011 17.75 7.00001C17.75 7.19892 17.671 7.38969 17.5303 7.53034C17.3897 7.67099 17.1989 7.75001 17 7.75001H7.75V13C7.74987 13.1483 7.70581 13.2931 7.62339 13.4163C7.54097 13.5396 7.42389 13.6356 7.28692 13.6923C7.14996 13.749 6.99926 13.7639 6.85386 13.735C6.70846 13.7061 6.57489 13.6348 6.47 13.53L0.469999 7.53001C0.32955 7.38939 0.25066 7.19876 0.25066 7.00001C0.25066 6.80126 0.32955 6.61064 0.469999 6.47001L6.47 0.470012C6.57489 0.365255 6.70846 0.293931 6.85386 0.265047C6.99926 0.236162 7.14996 0.251014 7.28692 0.307725C7.42389 0.364436 7.54097 0.460464 7.62339 0.58368C7.70581 0.706895 7.74987 0.851772 7.75 1.00001V6.25001H17Z" fill="white"/>
</svg>
