<svg width="21" height="20" viewBox="0 0 21 20" fill="none" xmlns="http://www.w3.org/2000/svg">
<path fill-rule="evenodd" clip-rule="evenodd" d="M7.81522 0C6.36412 0 4.94289 0.0512607 3.56242 0.149521C1.73125 0.279865 0.248994 1.66181 0.160624 3.43821C0.0553882 5.55361 0 7.74895 0 10C0 12.2511 0.0553882 14.4464 0.160624 16.5618C0.248996 18.3382 1.73125 19.7201 3.56242 19.8505C4.94289 19.9487 6.36412 20 7.81522 20C9.2663 20 10.6875 19.9487 12.068 19.8505C13.8992 19.7201 15.3815 18.3382 15.4698 16.5618C15.5132 15.6896 15.5481 14.8037 15.5742 13.9061C15.5862 13.4904 15.2517 13.1481 14.8358 13.1481H12.0716C11.7648 13.1481 11.5161 13.3968 11.5161 13.7036C11.5161 14.7056 10.9386 15.6181 10.0329 16.0468C9.12726 16.4757 8.05554 16.3441 7.28042 15.709C5.5262 14.2718 4.58909 13.3366 3.20701 11.634C2.43408 10.6818 2.43408 9.31825 3.20701 8.36606C4.58907 6.66347 5.5262 5.72822 7.28042 4.29096C8.05554 3.6559 9.12725 3.52439 10.0329 3.9532C10.9386 4.382 11.5161 5.29434 11.5161 6.29641C11.5161 6.60317 11.7648 6.85185 12.0715 6.85185H14.8358C15.2517 6.85185 15.5862 6.50958 15.5742 6.09391C15.5481 5.19622 15.5132 4.31041 15.4698 3.43821C15.3815 1.66181 13.8992 0.279865 12.068 0.149521C10.6875 0.0512607 9.2663 0 7.81522 0ZM9.2406 14.3731C9.49935 14.2506 9.66434 13.9899 9.66434 13.7036V11.4815H18.5332C19.3514 11.4815 20.0146 10.8182 20.0146 10C20.0146 9.18179 19.3514 8.51852 18.5332 8.51852H9.66434V6.29641C9.66434 6.0101 9.49935 5.74944 9.2406 5.62692C8.98183 5.5044 8.67562 5.54199 8.45415 5.72342C6.79227 7.08502 5.94457 7.93209 4.64491 9.53317C4.42406 9.80521 4.42406 10.1948 4.64491 10.4668C5.94457 12.0679 6.79227 12.915 8.45415 14.2766C8.67562 14.4581 8.98183 14.4956 9.2406 14.3731Z" fill="url(#paint0_linear_29_5112)"/>
<defs>
<linearGradient id="paint0_linear_29_5112" x1="11.2189" y1="23.3827" x2="6.05541" y2="-0.331879" gradientUnits="userSpaceOnUse">
<stop stop-color="#F53D3D"/>
<stop offset="1" stop-color="#FF6F6F"/>
</linearGradient>
</defs>
</svg>
